<?xml version="1.0" standalone="no"?>
<!DOCTYPE svg PUBLIC "-//W3C//DTD SVG 20010904//EN"
 "http://www.w3.org/TR/2001/REC-SVG-20010904/DTD/svg10.dtd">
<svg version="1.0" xmlns="http://www.w3.org/2000/svg"
 width="1093.000000pt" height="255.000000pt" viewBox="0 0 1093.000000 255.000000"
 preserveAspectRatio="xMidYMid meet">

<g transform="translate(0.000000,255.000000) scale(0.100000,-0.100000)"
fill="#000000" stroke="none">
<path d="M1 1508 c1 -630 5 -1020 10 -984 20 134 127 279 249 338 53 25 5079
1672 5130 1681 14 2 -1193 5 -2682 6 l-2708 1 1 -1042z"/>
<path d="M5531 2540 c65 -11 5072 -1646 5139 -1678 122 -59 229 -204 249 -338
5 -36 9 354 10 984 l1 1042 -2722 -1 c-1498 -1 -2702 -5 -2677 -9z"/>
<path d="M3235 884 c-1215 -398 -2320 -760 -2455 -804 l-245 -79 4930 0 4930
0 -180 58 c-99 32 -1209 394 -2466 805 -1257 410 -2290 746 -2295 745 -5 0
-1003 -327 -2219 -725z"/>
<path d="M1 223 l-1 -223 193 0 192 1 -66 22 c-37 13 -85 36 -108 51 -104 72
-183 195 -200 312 -6 44 -9 4 -10 -163z"/>
<path d="M10917 384 c-11 -109 -93 -237 -198 -310 -23 -15 -71 -38 -108 -51
l-66 -22 193 -1 192 0 0 220 c0 121 -2 220 -4 220 -2 0 -6 -25 -9 -56z"/>
</g>
</svg>
